<svg width="88" height="45" viewBox="0 0 88 45" fill="none" xmlns="http://www.w3.org/2000/svg">
<g clip-path="url(#clip0_296_11)">
<path d="M87.7515 19.0513C87.2447 17.3592 85.9692 15.8618 84.3386 15.0439C83.4032 14.5745 81.268 13.2456 80.5241 12.7732C80.4415 12.7209 80.3559 12.6716 80.2695 12.6262C78.6149 11.7682 76.7208 11.3512 74.4791 11.3512C73.4453 11.3512 72.5564 11.4397 71.9078 11.5043L71.7629 11.5189C71.5316 11.542 71.2569 11.5805 70.9468 11.6321L71.1893 11.2504C71.2486 11.1565 71.3042 11.0596 71.3545 10.9603C71.4671 10.7395 71.8455 9.94076 72.0069 8.91276C72.3154 6.94446 71.684 5.16006 70.2726 4.0074L66.5242 0.853353C66.0242 0.433223 65.4176 0.168526 64.7757 0.0908102C64.5963 0.0692651 63.9724 -0.00152588 63.4634 -0.00152588C63.2247 -0.00152588 63.0084 0.013094 62.8035 0.0431032C61.6999 0.204691 60.766 0.854891 60.2412 1.82596C59.6421 2.93322 59.6781 4.28902 60.3335 5.36474C60.4019 5.47631 60.4762 5.58404 60.5558 5.68715L62.3628 8.01248L54.9807 15.5279C51.3291 16.4774 47.2901 17.5308 44.2714 18.318C44.4973 17.5216 44.4418 16.6567 44.0897 15.8841C43.5897 14.7876 42.5679 14.0389 41.3945 13.9081C41.2489 13.892 41.101 13.8835 40.9538 13.8835H40.9523C39.1085 13.8835 37.7136 15.1501 37.071 15.868L32.1213 20.7195C32.0072 20.6302 31.8999 20.5394 31.8075 20.4517C29.2948 17.9509 24.4277 13.1033 23.8421 12.5031C22.5794 11.2088 21.2888 10.9372 20.4277 10.9372C19.9015 10.9372 19.4563 11.0373 19.1057 11.1634C18.8332 11.2466 18.1845 11.4474 17.6192 11.6451C17.1733 11.8006 16.7919 12.0029 16.4548 12.2622C15.5224 12.9794 14.9961 14.1074 15.0464 15.2809C15.0884 16.2689 15.5126 17.1445 16.207 17.7793L20.9555 26.4189C20.8106 26.5728 20.6762 26.7329 20.5561 26.8983C20.4495 27.046 20.3549 27.1961 20.2716 27.3477L10.6185 30.3517C9.27092 30.771 8.31898 32.0029 8.22889 33.4434C8.19736 33.9435 8.27243 34.4314 8.43684 34.8815L6.9834 33.3857C6.95638 33.358 6.9286 33.3303 6.90007 33.3033C6.41959 32.8417 5.55173 32.2145 3.57202 32.0983C3.50746 32.0945 3.44289 32.093 3.37833 32.093C2.16738 32.093 1.04201 32.7593 0.439915 33.8481C-0.194464 34.9946 -0.138158 36.4104 0.584058 37.5008C0.679403 37.6447 2.92638 41.0365 3.96466 42.5747C5.05099 44.1844 6.94136 45.0008 9.58248 45.0008C11.09 45.0008 12.4293 44.7384 12.5772 44.7092C12.6162 44.7015 12.6545 44.693 12.6936 44.6838L41.9065 37.6762C44.4696 37.1907 52.4778 35.6656 53.6399 35.3609C54.9304 35.0223 59.8328 33.5296 62.3883 32.577C63.0039 32.3477 64.5092 32.1507 65.9649 31.9606C68.9221 31.5743 72.9731 31.0449 77.4768 29.506C81.0075 28.2995 82.9963 27.4715 84.3416 26.6467C86.0015 25.6294 86.6576 24.6137 87.2357 23.5765L87.2792 23.4988C88.0375 22.143 88.2057 20.564 87.753 19.0528L87.7515 19.0513ZM65.6946 9.53295C66.7832 8.22485 65.8448 6.93599 65.8448 6.93599L63.1984 3.5311C63.1669 3.47955 63.2877 3.46262 63.4634 3.46262C63.814 3.46262 64.3808 3.5311 64.3808 3.5311L68.1533 6.70515C69.2606 7.59004 68.3597 9.35982 68.3597 9.35982L66.3838 12.4662L61.3703 13.8004L65.6946 9.53372V9.53295ZM39.4794 18.3033C39.4794 18.3033 40.2737 17.3469 40.9538 17.3469C40.9794 17.3469 41.0049 17.3484 41.0297 17.3507L39.6843 19.4191L37.7459 19.9292L39.4794 18.3026V18.3033ZM84.3461 21.7759C83.5721 23.161 83.2906 23.8681 76.407 26.2196C69.5234 28.5711 63.7104 28.398 61.2329 29.3213C58.7555 30.2447 53.9552 31.7021 52.8013 32.0052C51.6474 32.3084 41.2143 34.2844 41.2143 34.2844L11.9233 41.3104C11.9233 41.3104 10.8032 41.5366 9.58248 41.5366C8.45561 41.5366 7.24316 41.3443 6.74316 40.6033C5.70113 39.0597 3.37908 35.554 3.37908 35.554C3.37908 35.554 4.36406 35.6117 4.58928 35.828L8.00967 39.3483C8.00967 39.3483 8.84149 40.1024 10.6087 40.1024C11.0825 40.1024 11.6223 40.0485 12.2326 39.9108L36.866 33.2018C36.866 33.2018 31.827 32.8263 24.7182 30.8357L13.5134 33.9812C13.5134 33.9812 13.3602 34.0874 13.0134 34.0874C12.8032 34.0874 12.5224 34.0482 12.162 33.9235L11.599 33.6634L23.2821 30.0277C23.2821 30.0277 22.9442 29.4075 23.2678 28.9597C23.5914 28.5119 24.6334 27.8347 25.4359 27.5169L18.7356 15.3255C18.7356 15.3255 18.0456 15.1524 18.707 14.9215C19.3684 14.6907 20.1852 14.4452 20.1852 14.4452C20.1852 14.4452 20.2716 14.3983 20.427 14.3983C20.6477 14.3983 21.0066 14.4929 21.4525 14.95C22.2123 15.7287 29.4765 22.9571 29.4765 22.9571C29.4765 22.9571 31.3083 24.7538 32.9531 24.7538C33.0147 24.7538 33.0755 24.7515 33.1363 24.7461C34.8255 24.6014 40.6813 22.827 40.6813 22.827C40.6813 22.827 63.7247 16.8106 64.8928 16.5366C66.061 16.2627 70.6217 15.1085 72.0857 14.9638C72.6923 14.9038 73.5331 14.8123 74.4783 14.8123C75.8146 14.8123 77.3589 14.9962 78.744 15.7141C78.744 15.7141 81.5593 17.5031 82.8544 18.1525C84.1494 18.802 85.1209 20.3886 84.3468 21.7736L84.3461 21.7759Z" fill="#FFDD00"/>
</g>
<defs>
<clipPath id="clip0_296_11">
<rect width="88" height="45" fill="white"/>
</clipPath>
</defs>
</svg>
