<svg width="405" height="506" viewBox="0 0 405 506" fill="none" xmlns="http://www.w3.org/2000/svg">
<path opacity="0.75" d="M402.99 391.892V390.652V19.1217C402.99 9.54174 395.22 1.78174 385.65 1.78174H20.33C10.75 1.78174 2.98999 9.55174 2.98999 19.1217V390.612C13.03 395.192 20.01 405.312 20.01 417.072C20.01 428.832 13.03 438.952 2.99999 443.522V444.032V486.852C2.99999 495.772 10.23 503.002 19.15 503.002H386.85C395.77 503.002 403 495.772 403 486.852V443.342L402.97 442.232C394.3 437.202 388.47 427.822 388.47 417.082C388.47 406.342 394.31 396.932 403 391.912L402.99 391.892Z" fill="url(#paint0_linear_234_4)" fill-opacity="0.75"/>
<path d="M402.85 21.0617C402.18 144.712 404.75 269.182 401.89 392.762C397.89 394.762 393.89 398.762 391.89 402.762C390.89 404.762 389.89 407.762 388.89 409.762C387.89 413.762 388.89 417.762 388.89 421.762C389.89 430.762 396.89 436.762 402.89 443.762C402.89 458.762 403.89 473.762 402.89 488.762C401.89 495.762 395.89 501.762 388.89 502.762C264.89 503.762 140.89 503.762 16.89 502.762C7.89 502.762 3.89 494.762 2.89 486.762C1.89 472.762 2.89 457.762 2.89 443.762C10.89 440.762 15.89 432.762 18.89 425.762C21.89 418.762 18.89 410.762 16.89 403.762C13.89 397.762 7.89 393.762 2.89 389.762C2.89 267.142 2.89 143.612 2.97 21.0317C2.97 10.4618 11.55 1.90175 22.12 1.90175L383.7 1.79175C394.33 1.79175 402.91 10.4417 402.85 21.0717V21.0617Z" stroke="#4C88DF" stroke-width="3" stroke-linecap="round" stroke-linejoin="round"/>
<path d="M20 417.072H382.71" stroke="#4C88DF" stroke-width="3" stroke-linecap="round" stroke-linejoin="round" stroke-dasharray="6 8"/>
<defs>
<linearGradient id="paint0_linear_234_4" x1="202.99" y1="503.002" x2="202.99" y2="1.78174" gradientUnits="userSpaceOnUse">
<stop offset="0.04" stop-color="#0033A1"/>
<stop offset="0.83" stop-color="#00184D"/>
</linearGradient>
</defs>
</svg>
