<svg width="405" height="507" viewBox="0 0 405 507" fill="none" xmlns="http://www.w3.org/2000/svg">
<path opacity="0.75" d="M402.16 393.294V392.051V19.5802C402.16 9.97593 394.39 2.19629 384.82 2.19629H19.5C9.91997 2.19629 2.15997 9.98596 2.15997 19.5802V392.011C12.2 396.602 19.18 406.748 19.18 418.538C19.18 430.327 12.2 440.473 2.16997 445.055V445.566V488.494C2.16997 497.437 9.39997 504.685 18.32 504.685H386.02C394.94 504.685 402.17 497.437 402.17 488.494V444.874L402.14 443.761C393.47 438.719 387.64 429.315 387.64 418.548C387.64 407.781 393.48 398.347 402.17 393.314L402.16 393.294Z" fill="url(#paint0_linear_234_3)" fill-opacity="0.75"/>
<path d="M402.03 21.5151C401.36 145.478 403.93 270.263 401.07 394.156C397.07 396.161 393.07 400.171 391.07 404.181C390.07 406.186 389.07 409.194 388.07 411.199C387.07 415.209 388.07 419.219 388.07 423.23C389.07 432.252 396.07 438.267 402.07 445.285C402.07 460.323 403.07 475.361 402.07 490.399C401.07 497.417 395.07 503.432 388.07 504.435C264.07 505.437 140.07 505.437 16.07 504.435C7.06999 504.435 3.06999 496.414 2.06999 488.394C1.06999 474.359 2.06999 459.321 2.06999 445.285C10.07 442.278 15.07 434.257 18.07 427.24C21.07 420.222 18.07 412.202 16.07 405.184C13.07 399.169 7.06999 395.159 2.06999 391.148C2.06999 268.218 2.06999 144.375 2.14999 21.485C2.14999 10.8882 10.73 2.30657 21.3 2.30657L382.88 2.19629C393.51 2.19629 402.09 10.8682 402.03 21.5251V21.5151Z" stroke="#4C88DF" stroke-width="3" stroke-linecap="round" stroke-linejoin="round"/>
<path d="M19.18 418.528H381.88" stroke="#4C88DF" stroke-width="3" stroke-linecap="round" stroke-linejoin="round" stroke-dasharray="6 8"/>
<defs>
<linearGradient id="paint0_linear_234_3" x1="202.16" y1="504.675" x2="202.16" y2="2.19629" gradientUnits="userSpaceOnUse">
<stop offset="0.04" stop-color="#0033A1"/>
<stop offset="0.83" stop-color="#00184D"/>
</linearGradient>
</defs>
</svg>
