<svg width="908" height="506" viewBox="0 0 908 506" fill="none" xmlns="http://www.w3.org/2000/svg">
<path opacity="0.75" d="M906.028 392.764V391.524V19.7545C906.028 10.1683 898.299 2.40332 888.78 2.40332H19.6316C10.1024 2.40332 2.38354 10.1783 2.38354 19.7545V391.484C12.3703 396.066 19.3133 406.193 19.3133 417.961C19.3133 429.728 12.3703 439.855 2.3935 444.428V444.938V487.786C2.3935 496.711 9.58517 503.946 18.4579 503.946H889.973C898.846 503.946 906.038 496.711 906.038 487.786V444.247L906.008 443.137C897.384 438.104 891.585 428.717 891.585 417.971C891.585 407.224 897.394 397.808 906.038 392.784L906.028 392.764Z" fill="url(#paint0_linear_234_2)" fill-opacity="0.75"/>
<path d="M905.898 21.6857C905.232 145.415 907.788 269.965 904.943 393.625C900.965 395.626 896.986 399.629 894.997 403.631C894.002 405.633 893.007 408.635 892.012 410.636C891.018 414.638 892.012 418.641 892.012 422.644C893.007 431.649 899.97 437.653 905.938 444.658C905.938 459.667 906.933 474.677 905.938 489.687C904.943 496.691 898.975 502.695 892.012 503.696C768.67 504.696 139.562 504.696 16.2198 503.696C7.26751 503.696 3.28872 495.691 2.29402 487.685C1.29932 473.676 2.29402 458.667 2.29402 444.658C10.2516 441.656 15.2251 433.651 18.2092 426.646C21.1933 419.642 18.2092 411.637 16.2198 404.632C13.2357 398.628 7.26751 394.626 2.29402 390.623C2.29402 267.924 2.29402 144.315 2.37359 21.6557C2.37359 11.0789 10.9081 2.51339 21.4221 2.51339L886.85 2.40332C897.424 2.40332 905.958 11.0589 905.898 21.6957V21.6857Z" stroke="#4C88DF" stroke-width="3" stroke-linecap="round" stroke-linejoin="round"/>
<path d="M19.3133 417.951H885.855" stroke="#4C88DF" stroke-width="3" stroke-linecap="round" stroke-linejoin="round" stroke-dasharray="6 8"/>
<defs>
<linearGradient id="paint0_linear_234_2" x1="454.206" y1="503.936" x2="454.206" y2="2.40332" gradientUnits="userSpaceOnUse">
<stop offset="0.04" stop-color="#0033A1"/>
<stop offset="0.83" stop-color="#00184D"/>
</linearGradient>
</defs>
</svg>
