<svg width="58" height="58" viewBox="0 0 58 58" fill="none" xmlns="http://www.w3.org/2000/svg">
<g clip-path="url(#clip0_129_30)">
<path d="M15.2414 43.7009C16.2649 43.8386 17.2408 44.1171 18.1371 44.5205C19.202 44.9976 20.1524 45.6476 20.9407 46.4288C21.179 46.3423 21.4238 46.2687 21.6749 46.2079C22.2248 46.0766 22.7842 46.0062 23.3437 46.0062C25.3176 46.0062 27.104 46.813 28.3945 48.1129C29.6882 49.416 30.486 51.2154 30.486 53.2005C30.486 55.1856 29.8058 56.3415 28.5757 57.1067C27.4886 57.7823 26.0391 58 24.2909 58H15.2351V55.6019H24.2909C25.6355 55.6019 26.6876 55.4738 27.3296 55.0736C27.8287 54.763 28.1052 54.1835 28.1052 53.2005C28.1052 51.875 27.5712 50.6775 26.7098 49.8067C25.8484 48.939 24.6564 48.4011 23.3405 48.4011C22.94 48.4011 22.5649 48.4459 22.2185 48.5292C21.8624 48.6156 21.5255 48.7405 21.2045 48.9038C20.715 49.1759 20.0824 49.0702 19.7137 48.6156C19.0621 47.8184 18.188 47.1588 17.1645 46.6977C16.5701 46.432 15.9216 46.2335 15.2351 46.1182V43.6945L15.2414 43.7009ZM13.8174 43.608C14.3005 43.608 14.7742 43.6401 15.2382 43.7009V46.1246C14.7805 46.0478 14.3037 46.0062 13.8174 46.0062C12.0247 46.0062 10.3909 46.5601 9.13531 47.4758C7.89884 48.3787 7.03426 49.6274 6.76407 51.0329C6.656 51.6092 6.14107 52.0319 5.54349 52.0031C5.48945 52.0031 5.4831 51.9999 5.47674 51.9999C5.38456 51.9999 5.54667 52.0031 5.40999 52.0031C4.39601 52.0031 3.26125 52.9028 2.68592 53.9017C2.52064 54.1867 2.41574 54.462 2.38396 54.7022C2.36488 54.859 2.3776 54.9935 2.43164 55.0896C2.60328 55.3937 3.17861 55.6019 4.34198 55.6019H15.2414V58H4.3388C2.19324 58 0.953584 57.2956 0.371899 56.2806C0.0413244 55.7043 -0.0572123 55.064 0.02861 54.4044C0.101718 53.8313 0.314684 53.2486 0.629366 52.7043C1.44627 51.2891 3.04193 49.9956 4.66619 49.6786C5.20338 48.0297 6.29046 46.5953 7.74308 45.5355C9.3896 44.3316 11.5129 43.608 13.8206 43.608H13.8174Z" fill="#FFDD00"/>
<path d="M46.112 37.0444C45.6988 37.0444 45.2951 37.0796 44.9073 37.1469V34.7231C45.3015 34.6719 45.702 34.6463 46.112 34.6463C48.105 34.6463 49.9391 35.2738 51.3662 36.3144C52.5995 37.2141 53.5277 38.4244 54.0045 39.814C55.3967 40.1277 56.7476 41.2355 57.4437 42.4426C57.7203 42.9229 57.9078 43.4384 57.9746 43.9506C58.0509 44.5462 57.9619 45.1289 57.6599 45.654C57.1354 46.5697 56.0324 47.2036 54.1412 47.2036H44.9073V44.8055H54.1412C55.0534 44.8055 55.4889 44.6646 55.6033 44.4629C55.6288 44.4181 55.6319 44.3445 55.6192 44.2484C55.597 44.0691 55.5143 43.861 55.3872 43.6401C54.9263 42.8396 54.0299 42.1224 53.2353 42.1224C53.0986 42.1224 53.2798 42.116 53.1812 42.1192C53.1685 42.1192 53.1749 42.1192 53.1304 42.1192C52.5328 42.148 52.0179 41.7254 51.9066 41.1491C51.6841 40.0061 50.9785 38.9847 49.9677 38.2483C48.9346 37.4927 47.5869 37.038 46.1088 37.038L46.112 37.0444ZM44.9073 37.1469C44.3511 37.2429 43.8298 37.403 43.3466 37.6175C42.5043 37.9953 41.7859 38.5364 41.2519 39.1896C40.8832 39.6411 40.2538 39.7499 39.7612 39.4778C39.5037 39.3497 39.2303 39.2472 38.9474 39.1768C38.6677 39.1096 38.3658 39.0743 38.0384 39.0743C36.9735 39.0743 36.0104 39.5098 35.3143 40.211C34.6182 40.9122 34.1859 41.8823 34.1859 42.9549C34.1859 43.7169 34.3893 44.1588 34.7549 44.3861C35.2634 44.7031 36.1248 44.8055 37.2342 44.8055H44.9041V47.2036H37.2342C35.7243 47.2036 34.4656 47.0115 33.5088 46.4192C32.4122 45.7372 31.8051 44.655 31.8051 42.9549C31.8051 41.2547 32.5044 39.6507 33.6328 38.514C34.7612 37.3774 36.3187 36.673 38.0415 36.673C38.531 36.673 39.0174 36.7339 39.4973 36.8523C39.6785 36.8971 39.8565 36.9484 40.0313 37.006C40.6989 36.3624 41.4935 35.8278 42.3803 35.4307C43.1623 35.0817 44.0141 34.8352 44.9073 34.7199V37.1437V37.1469Z" fill="#FFDD00"/>
<path d="M20.858 5.88485H21.3729C21.4842 5.88485 21.5668 5.89445 21.6241 5.90726C21.4302 5.60629 21.1187 5.34695 20.8548 5.34055C20.8548 5.34055 20.8675 5.33414 20.8548 5.33414V1.78659C21.1981 2.174 21.4747 2.60944 21.6717 3.0865C22.5172 3.37146 23.296 4.04383 23.7156 4.77063C23.9063 5.10362 24.0398 5.46542 24.0843 5.83362C24.1415 6.28507 24.0716 6.72691 23.8395 7.13354C23.4486 7.81551 22.673 8.28617 21.3698 8.28617H20.8548V5.88805L20.858 5.88485ZM16.7258 2.39812C16.4652 2.39812 16.2141 2.42374 15.9757 2.47497V0.0480265C16.2204 0.0160088 16.4715 0 16.7258 0C17.9877 0 19.1543 0.400221 20.0634 1.06299C20.3558 1.2775 20.6228 1.52084 20.8612 1.78659V5.33734L20.8548 5.34055C20.7881 5.34055 20.8294 5.34055 20.8548 5.33734H20.8358C20.8135 5.33734 20.8548 5.33734 20.8167 5.33734C20.2191 5.36616 19.7042 4.94353 19.5929 4.36721C19.4912 3.83572 19.1543 3.35545 18.668 3.00006C18.153 2.62225 17.476 2.39492 16.7258 2.39492V2.39812ZM15.9757 5.88485H20.8612V8.28297H15.9757V5.88485ZM15.9757 2.47497C15.7468 2.52299 15.5307 2.59343 15.3304 2.68308C14.914 2.86878 14.5612 3.13453 14.3005 3.45471C13.9318 3.90615 13.3056 4.01501 12.8161 3.74607C12.7049 3.69164 12.5873 3.64681 12.4665 3.618C12.3489 3.58918 12.2122 3.57317 12.0565 3.57317C11.5797 3.57317 11.1474 3.76848 10.8327 4.08225C10.518 4.39603 10.3273 4.83467 10.3273 5.31493C10.3273 5.55827 10.3591 5.67993 10.4195 5.71515C10.6197 5.84002 11.0361 5.88165 11.5924 5.88165H15.982V8.27977H11.5924C10.6324 8.27977 9.81872 8.1485 9.17346 7.74827C8.38517 7.2584 7.94652 6.49638 7.94652 5.31493C7.94652 4.13348 8.40742 3.13453 9.15121 2.38532C9.895 1.6361 10.9249 1.17185 12.0596 1.17185C12.3775 1.17185 12.6985 1.21347 13.0196 1.29031C13.0418 1.29672 13.0641 1.29992 13.0863 1.30632C13.4646 0.982942 13.8969 0.70759 14.3705 0.496274C14.8727 0.27215 15.4162 0.115264 15.9852 0.041623V2.46856L15.9757 2.47497Z" fill="#FFDD00"/>
<g clip-path="url(#clip1_129_30)">
<path d="M57.8363 20.1864C57.5023 19.096 56.6616 18.131 55.5869 17.6039C54.9703 17.3014 53.5631 16.445 53.0728 16.1405C53.0183 16.1068 52.9619 16.0751 52.905 16.0458C51.8145 15.4929 50.5661 15.2242 49.0886 15.2242C48.4072 15.2242 47.8214 15.2812 47.3938 15.3228L47.2983 15.3323C47.1459 15.3471 46.9648 15.3719 46.7605 15.4052L46.9203 15.1592C46.9594 15.0987 46.996 15.0362 47.0292 14.9723C47.1034 14.8299 47.3528 14.3152 47.4592 13.6527C47.6625 12.3843 47.2464 11.2343 46.3161 10.4915L43.8456 8.45888C43.516 8.18813 43.1162 8.01755 42.6932 7.96746C42.5749 7.95358 42.1637 7.90796 41.8282 7.90796C41.6709 7.90796 41.5284 7.91738 41.3933 7.93672C40.6659 8.04085 40.0504 8.45987 39.7045 9.08567C39.3096 9.79924 39.3334 10.673 39.7654 11.3662C39.8104 11.4381 39.8594 11.5075 39.9118 11.574L41.1028 13.0725L36.2374 17.9158C33.8306 18.5277 31.1686 19.2066 29.1789 19.7138C29.3279 19.2006 29.2913 18.6432 29.0592 18.1454C28.7297 17.4388 28.0562 16.9563 27.2828 16.872C27.1868 16.8616 27.0894 16.8561 26.9924 16.8561H26.9914C25.7761 16.8561 24.8568 17.6723 24.4332 18.135L21.1709 21.2615C21.0957 21.204 21.025 21.1455 20.9641 21.0889C19.308 19.4773 16.1001 16.3533 15.7142 15.9665C14.8819 15.1324 14.0314 14.9574 13.4638 14.9574C13.1169 14.9574 12.8235 15.0218 12.5925 15.1032C12.4128 15.1567 11.9853 15.2861 11.6127 15.4136C11.3188 15.5138 11.0674 15.6442 10.8453 15.8113C10.2307 16.2734 9.88387 17.0004 9.91702 17.7566C9.94473 18.3933 10.2243 18.9576 10.682 19.3667L13.8117 24.9345C13.7162 25.0336 13.6276 25.1368 13.5484 25.2434C13.4782 25.3386 13.4158 25.4353 13.3609 25.533L6.99864 27.4689C6.11046 27.7392 5.48304 28.5331 5.42366 29.4613C5.40288 29.7837 5.45236 30.0981 5.56072 30.3881L4.60277 29.4242C4.58496 29.4063 4.56665 29.3884 4.54785 29.3711C4.23117 29.0736 3.65917 28.6694 2.35436 28.5945C2.31181 28.5921 2.26925 28.5911 2.2267 28.5911C1.42857 28.5911 0.686856 29.0205 0.290019 29.7222C-0.128094 30.461 -0.0909836 31.3735 0.385022 32.0761C0.447863 32.1688 1.92883 34.3547 2.61315 35.3459C3.32913 36.3833 4.57506 36.9094 6.3158 36.9094C7.30938 36.9094 8.19212 36.7404 8.28959 36.7215C8.31532 36.7165 8.34056 36.7111 8.36629 36.7051L27.6203 32.1892C29.3096 31.8763 34.5877 30.8934 35.3537 30.6971C36.2042 30.4789 39.4353 29.5169 41.1197 28.903C41.5254 28.7552 42.5175 28.6283 43.4769 28.5058C45.426 28.2569 48.096 27.9157 51.0643 26.9239C53.3914 26.1464 54.7022 25.6128 55.5889 25.0812C56.6829 24.4257 57.1153 23.7711 57.4963 23.1027L57.525 23.0526C58.0248 22.1789 58.1356 21.1613 57.8373 20.1874L57.8363 20.1864ZM43.2988 14.0524C44.0163 13.2094 43.3978 12.3788 43.3978 12.3788L41.6536 10.1845C41.6328 10.1513 41.7124 10.1404 41.8282 10.1404C42.0593 10.1404 42.4329 10.1845 42.4329 10.1845L44.9193 12.23C45.6491 12.8003 45.0554 13.9408 45.0554 13.9408L43.753 15.9427L40.4487 16.8025L43.2988 14.0529V14.0524ZM26.0206 19.7044C26.0206 19.7044 26.5441 19.088 26.9924 19.088C27.0092 19.088 27.026 19.089 27.0424 19.0905L26.1557 20.4235L24.8781 20.7522L26.0206 19.7039V19.7044ZM55.5918 21.9423C55.0817 22.8349 54.8961 23.2906 50.3592 24.806C45.8223 26.3214 41.991 26.2099 40.3582 26.8049C38.7253 27.4 35.5615 28.3392 34.801 28.5345C34.0404 28.7299 27.1641 30.0033 27.1641 30.0033L7.85861 34.5312C7.85861 34.5312 7.12036 34.677 6.3158 34.677C5.57309 34.677 4.77398 34.553 4.44443 34.0755C3.75764 33.0808 2.2272 30.8215 2.2272 30.8215C2.2272 30.8215 2.87638 30.8587 3.02483 30.9981L5.27918 33.2667C5.27918 33.2667 5.82742 33.7527 6.9922 33.7527C7.30443 33.7527 7.6602 33.718 8.06248 33.6292L24.2981 29.3056C24.2981 29.3056 20.977 29.0636 16.2916 27.7808L8.90662 29.808C8.90662 29.808 8.80568 29.8764 8.57708 29.8764C8.43853 29.8764 8.25347 29.8511 8.01596 29.7708L7.64486 29.6032L15.3451 27.2601C15.3451 27.2601 15.1224 26.8605 15.3357 26.5719C15.5489 26.2833 16.2357 25.8469 16.7647 25.6421L12.3485 17.7854C12.3485 17.7854 11.8938 17.6738 12.3297 17.525C12.7656 17.3763 13.304 17.2181 13.304 17.2181C13.304 17.2181 13.3609 17.1878 13.4633 17.1878C13.6088 17.1878 13.8453 17.2488 14.1392 17.5434C14.64 18.0452 19.4277 22.7035 19.4277 22.7035C19.4277 22.7035 20.6351 23.8614 21.7192 23.8614C21.7598 23.8614 21.7999 23.8599 21.8399 23.8564C22.9533 23.7632 26.8128 22.6197 26.8128 22.6197C26.8128 22.6197 42.0004 18.7424 42.7703 18.5659C43.5403 18.3894 46.5462 17.6455 47.5111 17.5523C47.9109 17.5136 48.4651 17.4546 49.0881 17.4546C49.9688 17.4546 50.9866 17.5731 51.8996 18.0358C51.8996 18.0358 53.7551 19.1887 54.6086 19.6072C55.4622 20.0258 56.1025 21.0483 55.5923 21.9408L55.5918 21.9423Z" fill="#FFDD00"/>
</g>
</g>
<defs>
<clipPath id="clip0_129_30">
<rect width="58" height="58" fill="white"/>
</clipPath>
<clipPath id="clip1_129_30">
<rect width="58" height="29" fill="white" transform="translate(0 7.90912)"/>
</clipPath>
</defs>
</svg>
